# xmcd
#
# Track frame offsets: 
#        150
#        17817
#        30465
#        44597
#        60242
#        73462
#        87132
#        101469
#        125159
#        138751
#        153177
#        165477
#        176241
#        201543
#        222033
#        244397
#
# Disc length: 3465 seconds
#
# Revision: 1
# Processed by: cddbd v1.5.2PL0 Copyright (c) Steve Scherf et al.
# Submitted via: ExactAudioCopy v0.95b4
#
DISCID=e30d8710
DTITLE=Chet Baker - Prince of Cool- [CD2] Chet Plays
DYEAR=2003
DGENRE=Jazz
TTITLE0=Stella By Starlight
TTITLE1=How Long Has This Been Going On?
TTITLE2=I Can't Get Started
TTITLE3=Pro Defunctus
TTITLE4=All The Things You Are
TTITLE5=Imagination
TTITLE6=On Green Dolphin Street
TTITLE7=To Mickey's Memory
TTITLE8=Bea's Flat
TTITLE9=Trav'lin' Light
TTITLE10=Happy Little Sunbeam
TTITLE11=The Half Dozens
TTITLE12=Lucius Lu
TTITLE13=Lullaby Of The Leaves
TTITLE14=Jumpin' Off A Clef
TTITLE15=Moonlight Becomes You
EXTD=YEAR: 2003
EXTT0=
EXTT1=
EXTT2=
EXTT3=
EXTT4=
EXTT5=
EXTT6=
EXTT7=
EXTT8=
EXTT9=
EXTT10=
EXTT11=
EXTT12=
EXTT13=
EXTT14=
EXTT15=
PLAYORDER=
